HIERARCHY
ROOT Hips
{
	OFFSET 0.00 0.00 0.00
	CHANNELS 6 Xposition Yposition Zposition Xrotation Yrotation Zrotation
	JOINT Spine
	{
		OFFSET 0.00000 1.72418 2.58627
		CHANNELS 3 Xrotation Yrotation Zrotation
		JOINT Spine1
		{
			OFFSET 0.00000 0.59880 3.39597
			CHANNELS 3 Xrotation Yrotation Zrotation
			JOINT Spine2
			{
				OFFSET 0.00000 0.30055 3.43524
				CHANNELS 3 Xrotation Yrotation Zrotation
				JOINT Spine3
				{
					OFFSET 0.00000 0.00000 3.44836
					CHANNELS 3 Xrotation Yrotation Zrotation
					JOINT Neck
					{
						OFFSET 0.00000 -1.29313 9.05195
						CHANNELS 3 Xrotation Yrotation Zrotation
						JOINT Head
						{
							OFFSET 0.00000 -0.82335 4.66946
							CHANNELS 3 Xrotation Yrotation Zrotation
							End Site
							{
								OFFSET 0.00000 0.00001 5.58203
							}
						}
					}
					JOINT RightShoulder
					{
						OFFSET -1.18828 -1.98046 6.41673
						CHANNELS 3 Xrotation Yrotation Zrotation
						JOINT RightArm
						{
							OFFSET -5.90180 0.00000 0.00000
							CHANNELS 3 Xrotation Yrotation Zrotation
							JOINT RightForeArm
							{
								OFFSET -11.45951 0.00000 0.00000
								CHANNELS 3 Xrotation Yrotation Zrotation
								JOINT RightHand
								{
									OFFSET -10.63451 0.00000 0.00000
									CHANNELS 3 Xrotation Yrotation Zrotation
									JOINT RightHandEnd
									{
										OFFSET -2.86944 0.00000 0.00000
										CHANNELS 3 Xrotation Yrotation Zrotation
										End Site
										{
											OFFSET -2.86944 0.00000 0.00000
										}
									}
									JOINT RightHandThumb1
									{
										OFFSET -1.14778 -1.91296 -0.76518
										CHANNELS 3 Yrotation Xrotation Zrotation
										End Site
										{
											OFFSET -2.77167 -0.74267 0.00000
										}
									}
								}
							}
						}
					}
					JOINT LeftShoulder
					{
						OFFSET 1.18828 -1.98046 6.41673
						CHANNELS 3 Xrotation Yrotation Zrotation
						JOINT LeftArm
						{
							OFFSET 5.90180 0.00000 0.00000
							CHANNELS 3 Xrotation Yrotation Zrotation
							JOINT LeftForeArm
							{
								OFFSET 11.45951 0.00000 0.00000
								CHANNELS 3 Xrotation Yrotation Zrotation
								JOINT LeftHand
								{
									OFFSET 10.63451 0.00000 0.00000
									CHANNELS 3 Xrotation Yrotation Zrotation
									JOINT LeftHandEnd
									{
										OFFSET 2.86944 0.00000 0.00000
										CHANNELS 3 Xrotation Yrotation Zrotation
										End Site
										{
											OFFSET 2.86944 0.00000 0.00000
										}
									}
									JOINT LeftHandThumb1
									{
										OFFSET 1.14778 -1.91296 -0.76518
										CHANNELS 3 Yrotation Xrotation Zrotation
										End Site
										{
											OFFSET 2.77167 -0.74267 0.00000
										}
									}
								}
							}
						}
					}
				}
			}
		}
	}
	JOINT RightUpLeg
	{
		OFFSET -3.52524 0.00000 -1.02984
		CHANNELS 3 Xrotation Yrotation Zrotation
		JOINT RightLeg
		{
			OFFSET 0.00001 0.00000 -17.80965
			CHANNELS 3 Xrotation Yrotation Zrotation
			JOINT RightFoot
			{
				OFFSET 0.00001 0.00000 -17.00908
				CHANNELS 3 Xrotation Yrotation Zrotation
				JOINT RightToeBase
				{
					OFFSET 0.00000 -5.55853 -2.02314
					CHANNELS 3 Xrotation Yrotation Zrotation
					End Site
					{
						OFFSET 0.00000 -2.85188 -0.00000
					}
				}
			}
		}
	}
	JOINT LeftUpLeg
	{
		OFFSET 3.52524 0.00000 -1.02984
		CHANNELS 3 Xrotation Yrotation Zrotation
		JOINT LeftLeg
		{
			OFFSET 0.00001 0.00000 -17.80965
			CHANNELS 3 Xrotation Yrotation Zrotation
			JOINT LeftFoot
			{
				OFFSET 0.00001 0.00000 -17.00908
				CHANNELS 3 Xrotation Yrotation Zrotation
				JOINT LeftToeBase
				{
					OFFSET 0.00000 -5.55853 -2.02314
					CHANNELS 3 Xrotation Yrotation Zrotation
					End Site
					{
						OFFSET 0.00000 -2.85188 -0.00000
					}
				}
			}
		}
	}
}
MOTION
Frames: 10
Frame Time: 0.008342
 5.0218 -99.4570 35.8980 -1.4735 3.0441 -177.4763 1.1700 2.1166 -0.7236 0.4185 0.3388 -0.0245 1.9145 0.6377 -0.5658 0.3795 0.4894 -0.2726 0.1352 -1.8039 -1.3172 0.9295 0.5911 -0.5567 7.4324 0.1734 -0.9147 -12.0428 -11.7531 -2.3778 0.0000 0.0000 19.1815 -11.0520 25.8722 -1.0274 0.0000 -0.0000 0.0000 0.0000 -0.0000 0.0000 5.8522 -3.3577 0.1665 -14.1507 6.3377 4.5796 -0.0000 -0.0000 -25.4905 -5.8336 -19.4282 -2.0600 0.0000 -0.0000 -0.0000 -0.0000 -0.0000 0.0000 -13.0740 1.3364 -23.4051 26.3832 0.0000 0.0000 -19.5350 6.5715 -2.8286 1.4521 0.0000 0.0000 -3.6954 -1.1307 12.2458 19.6296 0.0000 0.0000 -16.4421 9.1806 -1.2056 0.2624 0.0000 0.0000
 5.0293 -99.4521 35.9020 -1.4731 2.9074 -177.5188 1.1759 1.9746 -0.7148 0.4224 0.3195 -0.0265 1.8938 0.6303 -0.5324 0.3690 0.5017 -0.2779 0.0902 -1.7246 -1.2817 0.9216 0.5531 -0.6024 7.3819 0.3133 -0.8810 -12.1594 -11.6336 -2.3991 0.0000 0.0000 19.1368 -11.0208 25.9532 -1.0969 -0.0000 0.0000 -0.0000 -0.0000 -0.0000 -0.0000 5.7466 -3.3948 0.2154 -14.3152 6.2273 4.6902 -0.0000 -0.0000 -25.5002 -5.8316 -19.5511 -2.0654 0.0000 -0.0000 -0.0000 -0.0000 -0.0000 0.0000 -13.0218 1.1539 -23.2782 26.2432 0.0000 0.0000 -19.4148 6.5344 -2.8385 1.4351 0.0000 0.0000 -3.8280 -1.3041 12.2853 19.8878 0.0000 0.0000 -16.5543 9.0893 -1.1255 0.3209 0.0000 0.0000
 5.0381 -99.4454 35.9083 -1.4732 2.7579 -177.5589 1.1818 1.8198 -0.7038 0.4286 0.2930 -0.0317 1.8680 0.6250 -0.4965 0.3572 0.5158 -0.2865 0.0395 -1.6289 -1.2410 0.9044 0.5084 -0.6595 7.3157 0.4835 -0.8354 -12.2937 -11.4762 -2.4284 0.0000 0.0000 19.0827 -10.9926 26.0546 -1.1767 -0.0000 -0.0000 -0.0000 -0.0000 -0.0000 -0.0000 5.6225 -3.4483 0.2687 -14.5287 6.0888 4.8388 -0.0000 -0.0000 -25.5114 -5.8455 -19.7080 -2.0728 0.0000 -0.0000 -0.0000 -0.0000 0.0000 -0.0000 -12.9474 0.9595 -23.1794 26.0644 0.0000 0.0000 -19.2729 6.4861 -2.8085 1.4081 0.0000 0.0000 -4.0177 -1.5063 12.3743 20.2478 0.0000 0.0000 -16.6523 9.0235 -1.0385 0.3556 0.0000 0.0000
 5.0481 -99.4366 35.9171 -1.4727 2.6067 -177.5905 1.1878 1.6625 -0.6916 0.4363 0.2641 -0.0383 1.8412 0.6197 -0.4633 0.3440 0.5308 -0.2964 -0.0162 -1.5204 -1.1988 0.8781 0.4581 -0.7270 7.2346 0.6812 -0.7837 -12.4397 -11.2872 -2.4606 0.0000 0.0000 19.0172 -10.9693 26.1700 -1.2599 0.0000 0.0000 0.0000 0.0000 -0.0000 0.0000 5.4863 -3.5228 0.3266 -14.7883 5.9308 5.0149 -0.0000 -0.0000 -25.5174 -5.8781 -19.8945 -2.0834 -0.0000 -0.0000 -0.0000 -0.0000 -0.0000 0.0000 -12.8471 0.7662 -23.1257 25.8460 0.0000 0.0000 -19.1143 6.4310 -2.7316 1.3721 0.0000 0.0000 -4.2708 -1.7294 12.5196 20.7276 0.0000 0.0000 -16.7137 9.0095 -0.9570 0.3401 0.0000 0.0000
 5.0592 -99.4260 35.9284 -1.4689 2.4623 -177.6076 1.1973 1.5099 -0.6787 0.4455 0.2394 -0.0444 1.8135 0.6120 -0.4377 0.3300 0.5462 -0.3071 -0.0744 -1.4052 -1.1596 0.8435 0.4060 -0.8034 7.1384 0.8972 -0.7296 -12.5856 -11.0694 -2.4931 0.0000 0.0000 18.9410 -10.9491 26.2916 -1.3435 -0.0000 0.0000 -0.0000 0.0000 -0.0000 0.0000 5.3440 -3.6189 0.3842 -15.0827 5.7564 5.2103 -0.0000 -0.0000 -25.5132 -5.9329 -20.1016 -2.0955 -0.0000 -0.0000 -0.0000 -0.0000 0.0000 -0.0000 -12.7166 0.5840 -23.1320 25.5879 0.0000 0.0000 -18.9443 6.3753 -2.6047 1.3284 0.0000 0.0000 -4.5904 -1.9684 12.7234 21.3444 0.0000 0.0000 -16.7191 9.0745 -0.8945 0.2489 0.0000 0.0000
 5.0717 -99.4140 35.9420 -1.4658 2.3306 -177.6038 1.2058 1.3700 -0.6636 0.4565 0.2154 -0.0529 1.7856 0.6084 -0.4192 0.3156 0.5608 -0.3179 -0.1317 -1.2914 -1.1298 0.8017 0.3551 -0.8868 7.0283 1.1196 -0.6788 -12.7193 -10.8279 -2.5235 0.0000 0.0000 18.8548 -10.9342 26.4099 -1.4214 0.0000 -0.0000 -0.0000 0.0000 -0.0000 0.0000 5.2010 -3.7384 0.4342 -15.3958 5.5712 5.4155 -0.0000 -0.0000 -25.4923 -6.0131 -20.3169 -2.1117 0.0000 -0.0000 -0.0000 -0.0000 0.0000 -0.0000 -12.5610 0.4181 -23.2076 25.2919 0.0000 0.0000 -18.7681 6.3264 -2.4312 1.2792 0.0000 0.0000 -4.9852 -2.2205 12.9785 22.1117 0.0000 0.0000 -16.6551 9.2425 -0.8611 0.0599 0.0000 0.0000
 5.0855 -99.4006 35.9576 -1.4531 2.2209 -177.5744 1.2260 1.2521 -0.6496 0.4689 0.2004 -0.0570 1.7559 0.6003 -0.4145 0.3009 0.5763 -0.3289 -0.1853 -1.1859 -1.1122 0.7571 0.3090 -0.9745 6.9062 1.3385 -0.6324 -12.8279 -10.5682 -2.5527 0.0000 0.0000 18.7608 -10.9205 26.5163 -1.4922 -0.0000 -0.0000 -0.0000 -0.0000 -0.0000 0.0000 5.0640 -3.8798 0.4740 -15.7073 5.3805 5.6176 -0.0000 -0.0000 -25.4493 -6.1194 -20.5312 -2.1278 -0.0000 -0.0000 -0.0000 -0.0000 0.0000 -0.0000 -12.3712 0.2771 -23.3578 24.9628 0.0000 0.0000 -18.5941 6.2917 -2.2163 1.2277 0.0000 0.0000 -5.4401 -2.4773 13.2683 23.0269 0.0000 0.0000 -16.5122 9.5325 -0.8601 -0.2432 0.0000 -0.0000
 5.1011 -99.3871 35.9741 -1.4514 2.1297 -177.5155 1.2362 1.1543 -0.6324 0.4824 0.1919 -0.0622 1.7267 0.5952 -0.4202 0.2863 0.5901 -0.3388 -0.2342 -1.0954 -1.1136 0.7118 0.2700 -1.0649 6.7743 1.5432 -0.6008 -12.9048 -10.3000 -2.5772 0.0000 0.0000 18.6622 -10.9061 26.6053 -1.5540 -0.0000 0.0000 0.0000 -0.0000 -0.0000 0.0000 4.9370 -4.0440 0.4957 -16.0019 5.1939 5.8069 -0.0000 -0.0000 -25.3792 -6.2526 -20.7347 -2.1461 -0.0000 -0.0000 0.0000 -0.0000 0.0000 0.0000 -12.1746 0.1549 -23.5772 24.6071 0.0000 0.0000 -18.4253 6.2790 -1.9757 1.1765 0.0000 0.0000 -5.9756 -2.7424 13.5692 24.0892 0.0000 0.0000 -16.2960 9.9538 -0.8900 -0.6693 0.0000 -0.0000
 5.1188 -99.3725 35.9912 -1.4347 2.0498 -177.4232 1.2618 1.0649 -0.6174 0.4995 0.1999 -0.0630 1.6947 0.5882 -0.4393 0.2719 0.6024 -0.3466 -0.2758 -1.0262 -1.1366 0.6723 0.2408 -1.1557 6.6381 1.7293 -0.5867 -12.9442 -10.0351 -2.6000 0.0000 0.0000 18.5625 -10.8865 26.6733 -1.6063 0.0000 0.0000 0.0000 0.0000 -0.0000 -0.0000 4.8261 -4.2358 0.4960 -16.2663 5.0255 5.9776 -0.0000 -0.0000 -25.2817 -6.4039 -20.9202 -2.1629 0.0000 0.0000 0.0000 -0.0000 0.0000 0.0000 -11.9411 0.0391 -23.8672 24.2194 0.0000 0.0000 -18.2634 6.2921 -1.7188 1.1283 0.0000 0.0000 -6.5504 -3.0225 13.8543 25.2718 0.0000 0.0000 -16.0191 10.5072 -0.9496 -1.2178 0.0000 -0.0000
 5.1386 -99.3582 36.0078 -1.4186 1.9811 -177.2989 1.2907 0.9909 -0.5996 0.5151 0.2079 -0.0664 1.6619 0.5922 -0.4664 0.2577 0.6122 -0.3508 -0.3101 -0.9816 -1.1838 0.6416 0.2223 -1.2458 6.5022 1.8920 -0.5973 -12.9481 -9.7841 -2.6203 0.0000 0.0000 18.4652 -10.8576 26.7221 -1.6512 -0.0000 0.0000 -0.0000 0.0000 0.0000 0.0000 4.7319 -4.4468 0.4701 -16.4776 4.8726 6.1191 -0.0000 -0.0000 -25.1523 -6.5780 -21.0840 -2.1792 -0.0000 -0.0000 0.0000 0.0000 0.0000 0.0000 -11.6972 -0.0720 -24.2082 23.8138 0.0000 0.0000 -18.1132 6.3351 -1.4652 1.0858 0.0000 0.0000 -7.1674 -3.3110 14.0926 26.5407 0.0000 0.0000 -15.7040 11.1785 -1.0243 -1.8820 0.0000 -0.0000
